<svg xmlns="http://www.w3.org/2000/svg" viewBox="0 0 512 512" role="img" aria-label="mojmonom">
  <defs>
    <linearGradient id="bg" x1="88" y1="64" x2="432" y2="462" gradientUnits="userSpaceOnUse">
      <stop stop-color="#16365e"/>
      <stop offset="1" stop-color="#0b1d34"/>
    </linearGradient>
    <linearGradient id="gold" x1="164" y1="142" x2="357" y2="382" gradientUnits="userSpaceOnUse">
      <stop stop-color="#ffe08a"/>
      <stop offset=".48" stop-color="#e9ad3f"/>
      <stop offset="1" stop-color="#b77427"/>
    </linearGradient>
    <linearGradient id="wood" x1="146" y1="130" x2="371" y2="388" gradientUnits="userSpaceOnUse">
      <stop stop-color="#c88338"/>
      <stop offset="1" stop-color="#7a421d"/>
    </linearGradient>
  </defs>
  <rect width="512" height="512" rx="100" fill="url(#bg)"/>
  <path d="M151 376 207 150c12-49 86-49 98 0l56 226" fill="none" stroke="url(#wood)" stroke-width="23" stroke-linecap="round" stroke-linejoin="round"/>
  <rect x="230" y="122" width="52" height="238" rx="26" fill="url(#gold)"/>
  <path d="M154 376h204" fill="none" stroke="#8a4a20" stroke-width="50" stroke-linecap="round"/>
  <path d="M171 365 198 258l58 118 58-118 28 107" fill="none" stroke="url(#gold)" stroke-width="24" stroke-linecap="round" stroke-linejoin="round"/>
  <path d="M259 376 378 160" fill="none" stroke="url(#gold)" stroke-width="16" stroke-linecap="round"/>
  <rect x="335" y="241" width="39" height="39" rx="8" transform="rotate(25 354.5 260.5)" fill="url(#gold)"/>
  <path d="M166 405h35M311 405h35" fill="none" stroke="url(#gold)" stroke-width="13" stroke-linecap="round"/>
</svg>
